<?xml version="1.0" encoding="UTF-8"?>
<!--
  Copyright 2026 Petri Koistinen

  Licensed under the Apache License, Version 2.0 (the "License");
  you may not use this file except in compliance with the License.
  You may obtain a copy of the License at

      https://www.apache.org/licenses/LICENSE-2.0

  Unless required by applicable law or agreed to in writing, software
  distributed under the License is distributed on an "AS IS" BASIS,
  WITHOUT WARRANTIES OR CONDITIONS OF ANY KIND, either express or
  implied. See the License for the specific language governing
  permissions and limitations under the License.
-->
<svg xmlns="http://www.w3.org/2000/svg" viewBox="0 0 1024 1024">
  <defs>
    <linearGradient id="background" x1="120" y1="80" x2="900" y2="950" gradientUnits="userSpaceOnUse">
      <stop stop-color="#0B4D75"/>
      <stop offset="1" stop-color="#07304C"/>
    </linearGradient>
    <linearGradient id="card" x1="190" y1="170" x2="840" y2="830" gradientUnits="userSpaceOnUse">
      <stop stop-color="#FFFFFF"/>
      <stop offset="1" stop-color="#D9ECF7"/>
    </linearGradient>
    <linearGradient id="shield" x1="520" y1="360" x2="820" y2="760" gradientUnits="userSpaceOnUse">
      <stop stop-color="#20B9B2"/>
      <stop offset="1" stop-color="#087B94"/>
    </linearGradient>
  </defs>
  <rect x="44" y="44" width="936" height="936" rx="214" fill="url(#background)"/>
  <rect x="148" y="194" width="728" height="612" rx="92" fill="#031F32" opacity=".28" transform="rotate(-8 512 512)"/>
  <rect x="148" y="170" width="728" height="612" rx="92" fill="url(#card)"/>
  <rect x="212" y="246" width="236" height="176" rx="28" fill="#C4A35A"/>
  <path d="M250 294h160M250 342h160M302 262v120M358 262v120" fill="none" stroke="#8A6A2E" stroke-linecap="round" stroke-width="22"/>
  <rect x="212" y="470" width="264" height="36" rx="18" fill="#24749A"/>
  <rect x="212" y="536" width="194" height="28" rx="14" fill="#7AABC4"/>
  <rect x="212" y="590" width="238" height="28" rx="14" fill="#7AABC4"/>
  <path d="M689 298c71 54 129 63 129 63v164c0 126-82 205-129 232-47-27-129-106-129-232V361s58-9 129-63Z" fill="url(#shield)"/>
  <path d="m615 521 51 51 102-119" fill="none" stroke="#FFFFFF" stroke-linecap="round" stroke-linejoin="round" stroke-width="39"/>
  <circle cx="782" cy="246" r="31" fill="#20B9B2"/>
</svg>
